<?xml version="1.0" encoding="utf-8"?>
<!-- Generator: Adobe Illustrator 22.0.1, SVG Export Plug-In . SVG Version: 6.00 Build 0)  -->
<svg version="1.1" id="拥堵" xmlns="http://www.w3.org/2000/svg" xmlns:xlink="http://www.w3.org/1999/xlink" x="0px" y="0px"
	 viewBox="0 0 48 60" style="enable-background:new 0 0 48 60;" xml:space="preserve">
<style type="text/css">
	.st0{enable-background:new    ;}
	.st1{fill:url(#SVGID_1_);}
	.st2{fill:#03BCF9;}
	.st3{fill:#FFFFFF;}
</style>
<g id="椭圆_646" class="st0">
	<g>
		<g>
			<g>
				
					<radialGradient id="SVGID_1_" cx="17.3161" cy="-1759.7565" r="11.8877" gradientTransform="matrix(1.0251 0 0 -0.1813 6.2493 -265.2782)" gradientUnits="userSpaceOnUse">
					<stop  offset="0" style="stop-color:#000000;stop-opacity:0.3"/>
					<stop  offset="1" style="stop-color:#000000;stop-opacity:0"/>
				</radialGradient>
				<ellipse class="st1" cx="24" cy="53.8" rx="17" ry="3"/>
			</g>
		</g>
	</g>
</g>
<g id="椭圆_12_拷贝_1_">
	<path class="st2" d="M24,51.5c-1.2,0-2-1.1-2.6-1.9l-0.2-0.3c-1.5-2.4-3.5-4.3-5.9-5.6c-8.7-5-12.8-11.2-12.8-19.3
		C2.4,18.6,4.6,13.2,8.7,9S18.2,2.5,24,2.5C29.8,2.6,35.3,4.9,39.3,9s6.2,9.6,6.2,15.4c0,7.9-4.1,14.4-12.2,19.1
		c-4.2,2.4-5.6,4.5-6.5,5.8C25.9,50.8,25,51.5,24,51.5z"/>
	<path class="st2" d="M24,4c11.2,0.1,20.1,9.3,20,20.4c0,7.6-4.1,13.5-11.5,17.8c-4.4,2.5-6,4.8-7,6.3c-0.4,0.7-1,1.5-1.5,1.5
		s-1-0.8-1.5-1.5c-1.6-2.6-3.8-4.7-6.5-6.1C7.7,37.6,4,32,4,24.4C3.9,13.3,12.8,4.1,24,4 M24,1L24,1C17.8,1.1,12,3.5,7.6,8
		C3.3,12.4,0.9,18.2,1,24.4C1,33.1,5.3,39.7,14.5,45h0.1h0.1c2.2,1.1,4,2.8,5.3,5l0.1,0.1l0.1,0.1l0.2,0.2c0.5,1,1.6,2.6,3.6,2.6
		c1.6,0,2.9-1,4-2.9c0.8-1.3,2.1-3.1,5.9-5.3c8.5-5,13-12,13-20.4c0.1-6.2-2.3-12-6.6-16.4C36,3.5,30.2,1.1,24,1L24,1L24,1z"/>
</g>
<g id="椭圆_12_拷贝">
	<path class="st2" d="M24,51c-1,0-1.6-0.9-2.1-1.7l-0.2-0.2c-1.6-2.6-3.6-4.5-6.1-5.8C7,38.3,3,32.3,3,24.4c-0.1-5.6,2.1-11,6-15
		c4-4.1,9.3-6.3,15-6.4c5.7,0.1,11,2.3,15,6.4c4,4,6.1,9.4,6,15c0,7.8-4,14-12,18.7c-4.3,2.4-5.8,4.7-6.7,6C25.6,50.3,24.8,51,24,51
		z"/>
	<path class="st3" d="M24,4c11.2,0.1,20.1,9.3,20,20.4c0,7.6-4.1,13.5-11.5,17.8c-4.4,2.5-6,4.8-7,6.3c-0.4,0.7-1,1.5-1.5,1.5
		s-1-0.8-1.5-1.5c-1.6-2.6-3.8-4.7-6.5-6.1C7.7,37.6,4,32,4,24.4C3.9,13.3,12.8,4.1,24,4 M24,2L24,2C18,2.1,12.5,4.4,8.3,8.7
		C4.2,12.9,1.9,18.5,2,24.4C2,32.7,6.1,39,15,44.1l0,0l0,0c2.3,1.2,4.3,3,5.7,5.4v0.1v0.1l0.2,0.2c0.6,0.9,1.5,2.1,3,2.1
		c1.2,0,2.2-0.8,3.2-2.4c0.8-1.3,2.3-3.3,6.3-5.6C41.8,39.1,46,32.5,46,24.4c0.1-5.9-2.2-11.5-6.3-15.7C35.5,4.4,30,2.1,24,2L24,2
		L24,2z"/>
</g>
<g>
	<path class="st3" d="M29.6,35.5H13.8V12.3h15.8v5.6h-1l0-4.1l0-0.6H15.7v21.4h13v-3.7h0.9L29.6,35.5z"/>
	<path class="st3" d="M25.5,19.7c0,1.7-1.4,3-3.1,3s-3.1-1.3-3.1-3s1.4-3,3.1-3C24.1,16.7,25.5,18.1,25.5,19.7z M33.3,29.9h-4.6
		c-0.5,0-1-0.5-1.1-0.6l-1.7-1.3v2.8h-7.4v-5.6c0-1.2,0.3-1.8,1.6-1.8h3.9c1,0,2.4,1.5,2.5,1.6l2.8,2.6c0.1,0.1,0.1,0.2,0.2,0.2h3.5
		c0.6,0,1.2,0.5,1.2,1.1C34,29.6,33.9,29.9,33.3,29.9z M35.5,29.9v-2l2.7,0v2H35.5z"/>
</g>
</svg>
